HIERARCHY
ROOT Hips
{
  OFFSET 0 0 0
  CHANNELS 6 Xposition Yposition Zposition Zrotation Xrotation Yrotation
  JOINT Spine
  {
    OFFSET 0 10 0
    CHANNELS 3 Zrotation Xrotation Yrotation
    JOINT Neck
    {
      OFFSET 0 30 0
      CHANNELS 3 Zrotation Xrotation Yrotation
      JOINT Head
      {
        OFFSET 0 8 0
        CHANNELS 3 Zrotation Xrotation Yrotation
        End Site
        {
          OFFSET 0 10 0
        }
      }
    }
    JOINT LeftArm
    {
      OFFSET 15 30 0
      CHANNELS 3 Zrotation Xrotation Yrotation
      JOINT LeftForeArm
      {
        OFFSET 25 0 0
        CHANNELS 3 Zrotation Xrotation Yrotation
        JOINT LeftHand
        {
          OFFSET 25 0 0
          CHANNELS 3 Zrotation Xrotation Yrotation
          End Site
          {
            OFFSET 10 0 0
          }
        }
      }
    }
    JOINT RightArm
    {
      OFFSET -15 30 0
      CHANNELS 3 Zrotation Xrotation Yrotation
      JOINT RightForeArm
      {
        OFFSET -25 0 0
        CHANNELS 3 Zrotation Xrotation Yrotation
        JOINT RightHand
        {
          OFFSET -25 0 0
          CHANNELS 3 Zrotation Xrotation Yrotation
          End Site
          {
            OFFSET -10 0 0
          }
        }
      }
    }
  }
  JOINT LeftUpLeg
  {
    OFFSET 10 -10 0
    CHANNELS 3 Zrotation Xrotation Yrotation
    JOINT LeftLeg
    {
      OFFSET 0 -35 0
      CHANNELS 3 Zrotation Xrotation Yrotation
      JOINT LeftToe
      {
        OFFSET 0 -40 0
        CHANNELS 3 Zrotation Xrotation Yrotation
        JOINT LeftToeEnd
        {
          OFFSET 0 0 0
          CHANNELS 3 Zrotation Xrotation Yrotation
          End Site
          {
            OFFSET 0 0 15
          }
        }
      }
    }
  }
  JOINT RightUpLeg
  {
    OFFSET -10 -10 0
    CHANNELS 3 Zrotation Xrotation Yrotation
    JOINT RightLeg
    {
      OFFSET 0 -35 0
      CHANNELS 3 Zrotation Xrotation Yrotation
      JOINT RightToe
      {
        OFFSET 0 -40 0
        CHANNELS 3 Zrotation Xrotation Yrotation
        JOINT RightToeEnd
        {
          OFFSET 0 0 0
          CHANNELS 3 Zrotation Xrotation Yrotation
          End Site
          {
            OFFSET 0 0 15
          }
        }
      }
    }
  }
}
MOTION
Frames:	9
Frame Time:	0.0333333
-24.883 103.013 214.493 5.54177 15.876 -16.978 4.61852 -28.7208 5.60719 -10.5719 -8.85635 0.491866 12.6669 7.75286 -3.04632 -30.1324 21.0401 -55.4849 26.573 -15.1176 -52.1666 0.0699197 5.77348 -0.72875 13.2887 28.2329 62.7534 -19.2375 -6.9432 28.7188 0.0989184 19.2317 0.559182 1.48212 -0.709694 7.07348 1.04683 22.129 -1.63261 -15.709 23.3222 20.8329 0 0 -1.19271e-015 -0.169775 -3.92321 5.79523 -1.04958 28.9142 0.711634 14.3064 12.7023 -29.9671 -3.18055e-015 -6.36111e-015 4.77083e-015 
-25.9577 109.157 217.729 4.53792 8.47965 -17.049 1.56909 -16.9139 6.01536 -10.5507 -16.508 -0.769447 12.8251 11.3919 -4.79257 -37.1831 18.4162 -50.0581 26.9142 -15.5435 -53.0543 0.116932 8.00011 -0.715407 23.4521 23.4574 58.4596 -19.813 -7.27954 29.6758 -0.171215 23.2669 0.65448 -0.107509 3.49334 9.94884 2.34974 31.8111 -2.35919 -9.41774 35.0416 8.76434 -1.37935e-033 1.59028e-015 4.96962e-017 -0.297652 0.416357 2.34389 -2.05937 38.6724 0.852023 13.4157 22.5439 -21.9687 3.18055e-015 4.77083e-015 -0 
-26.9849 114.706 220.772 5.69335 3.62822 -17.6014 -3.30109 -8.67933 5.28752 -8.38701 -22.5413 -1.23985 12.671 14.3948 -4.72367 -46.1942 14.9177 -40.181 27.169 -15.8365 -54.001 0.0625289 6.078 -0.710372 31.6963 21.5887 55.6736 -20.4555 -7.73243 31.1078 0.0827244 17.2495 0.77995 -3.85545 5.33295 8.84833 2.84247 35.2566 -2.86029 -4.91802 40.3863 2.24682 1.59028e-015 0 -9.93923e-017 -1.77806 -0.567481 1.95073 -3.1 48.9552 1.42523 14.9531 29.2016 -22.6052 -2.58627e-033 -1.98785e-016 -7.45443e-016 
-28.2304 119.476 225.347 5.5136 2.45615 -18.3776 -3.32411 -8.94302 4.8318 -5.45543 -21.2071 -0.441162 9.56372 16.4094 -3.74402 -56.7881 11.5794 -28.52 26.1525 -13.8579 -50.4943 0.0309248 4.59876 -0.710535 38.0592 23.8916 51.1042 -20.149 -7.23888 30.0961 0.339814 15.1526 0.645038 -5.08641 6.08104 6.56939 2.33991 31.4338 -2.74629 -3.86897 36.7419 0.379873 -1.59028e-015 -1.59028e-015 -3.97569e-016 -1.19009 -1.06331 2.85521 -3.19982 50.3713 1.625 12.6203 28.312 -19.3282 -6.36111e-015 -3.97569e-016 -2.18663e-015 
-29.4879 123.114 230.023 5.40637 5.22953 -19.0067 -1.5334 -15.5006 4.2739 -4.29809 -16.7012 0.183675 8.63671 17.5558 -3.25269 -65.6643 6.7015 -16.6663 23.9379 -10.6948 -44.2448 -0.0176565 7.52941 -0.721343 46.5829 26.6687 42.4578 -19.5247 -6.6242 28.5939 0.0846607 18.6826 0.611954 -4.32723 1.94705 4.61869 1.7912 28.3489 -2.30896 -7.25487 28.9929 5.6412 -3.18055e-015 0 -7.95139e-016 0.301365 -4.33099 3.7091 -2.71883 46.5699 1.34379 12.6373 25.4664 -20.4535 0 1.59028e-015 -0 
-30.4212 125.59 234.03 4.38459 5.75815 -18.7348 -0.018564 -14.0987 3.96103 -4.59249 -17.3628 -0.0841301 8.77047 16.8031 -3.41711 -70.8916 -0.212909 -10.5882 20.5366 -7.27388 -36.5929 -0.16162 8.00429 -0.74981 52.2204 25.4264 36.0876 -19.0661 -6.16972 27.8295 0.131428 19.5648 0.655149 -2.74241 -1.59857 3.83867 1.56211 28.1397 -2.0639 -8.53162 23.1328 8.59593 7.95139e-016 9.54166e-015 -0 1.48314 -4.9309 3.86087 -2.25294 41.0647 1.13519 12.5916 22.1484 -21.4222 -2.64834e-031 -4.77083e-015 -3.18055e-015 
-31.2855 127.109 237.274 3.59653 4.26578 -18.9356 -0.536155 -6.79647 4.28413 -4.62144 -21.9733 -0.57789 9.59579 15.7583 -3.85402 -72.9435 -5.79502 -8.79288 15.8786 -4.01334 -27.5408 -0.295689 6.10396 -0.863701 55.3347 23.0411 33.1621 -18.282 -5.58243 26.8032 0.314992 17.52 0.714348 -1.66662 -4.08845 3.5514 1.37274 27.5396 -1.88468 -8.0824 23.7534 7.48245 -0 -3.18055e-015 -0 1.9916 -5.45951 5.44129 -1.95969 37.5585 1.16821 11.8316 18.466 -21.353 3.18055e-015 -3.18055e-015 -4.77083e-015 
-32.1014 127.595 240.493 3.05896 3.29398 -18.8065 -1.11483 -0.322931 4.50676 -5.44889 -25.5481 -1.25872 10.8751 15.1912 -4.41658 -74.0535 -7.31548 -7.29715 10.5804 -1.56198 -17.7871 -0.381435 8.34556 -0.926999 56.8437 22.4346 30.5121 -16.9264 -4.70584 24.6226 0.415726 18.0309 0.610918 -0.606284 -6.60424 3.24185 1.16392 26.2595 -1.68083 -7.73893 26.167 6.34726 -1.59028e-015 6.36111e-015 -1.59028e-015 2.31755 -7.27117 7.22675 -1.72887 35.1323 1.2372 10.6158 17.6595 -18.6878 -3.18055e-015 -3.18055e-015 -6.36111e-015 
-32.9645 127.048 243.82 3.08874 2.81285 -19.275 -2.50266 4.63869 5.12675 -4.71645 -27.6941 -1.26079 10.3726 14.5697 -4.38234 -75.094 -10.3602 -5.32629 5.80999 -0.328414 -9.19844 -0.224023 22.4639 -0.800176 57.459 24.6176 28.126 -15.2151 -3.72103 21.6721 0.484653 20.8255 0.464723 -0.0146968 -10.068 3.29515 1.10326 25.9374 -1.46918 -8.63139 27.1148 7.5852 -8.82781e-032 -6.36111e-015 -7.95139e-016 2.08437 -9.70963 9.07091 -1.57567 33.1681 1.36387 10.7597 16.0216 -19.2884 7.06225e-031 -6.36111e-015 6.36111e-015 
